<?xml version="1.0" encoding="utf-8"?>
<!-- Generator: Adobe Illustrator 21.0.0, SVG Export Plug-In . SVG Version: 6.00 Build 0)  -->
<svg version="1.1" id="Capa_1" xmlns="http://www.w3.org/2000/svg" xmlns:xlink="http://www.w3.org/1999/xlink" x="0px" y="0px"
	 viewBox="0 0 150 195.7" style="enable-background:new 0 0 150 195.7;" xml:space="preserve">
<style type="text/css">
	.st0{fill:#FFFFFF;}
	.st1{fill:#E6E6E6;}
	.st2{fill:#1B804D;}
	.st3{fill:#39B54A;}
	.st4{opacity:0.4;fill:#1B804D;}
	.st5{fill:#A01722;}
	.st6{fill:#E33800;}
	.st7{opacity:0.4;fill:#A01722;}
	.st8{fill:#E1980B;}
	.st9{fill:#EFC000;}
	.st10{opacity:0.54;fill:#E1980B;}
</style>
<g>
	<path class="st0" d="M75,0L0,28.4l0.2,6.1c1.4,42.2,7.8,73.2,20.1,97.5c11.2,22.2,26,36.3,41.6,51.1c2.3,2.2,4.7,4.5,7.1,6.8l6,5.8
		l6-5.8c2.4-2.3,4.8-4.6,7.1-6.8c15.6-14.9,30.4-28.9,41.6-51.1c12.3-24.3,18.7-55.3,20.1-97.5l0.2-6.1L75,0z M75,183.8
		C41.4,151.2,12,130.4,8.8,34.3L75,9.2l66.2,25.1C138,130.4,108.6,151.2,75,183.8z"/>
	<path class="st1" d="M75,0L0,28.4l0.2,6.1c1.4,42.2,7.8,73.2,20.1,97.5c11.2,22.2,26,36.3,41.6,51.1c2.3,2.2,4.7,4.5,7.1,6.8l6,5.8
		"/>
	<path class="st5" d="M8.8,34.3c3.2,96.1,32.6,117,66.2,149.5c33.6-32.6,63-53.4,66.2-149.5L75,9.2L8.8,34.3z"/>
	<g>
		<path class="st6" d="M10.8,37.5c3,91.5,31,111.3,63,142.3c32-31,60-50.8,63-142.3l-63-23.9L10.8,37.5z"/>
	</g>
	<polygon class="st5" points="102.6,68.9 95.3,61.6 74.1,82.8 52.8,61.6 45.5,68.9 66.7,90.1 45.5,111.4 52.8,118.7 74.1,97.5 
		95.3,118.7 102.6,111.4 81.4,90.1 	"/>
	<polygon class="st0" points="103.3,67.6 96,60.3 75,81.3 54,60.3 46.7,67.6 67.7,88.6 46.7,109.6 54,116.9 75,95.9 96,116.9 
		103.3,109.6 82.3,88.6 	"/>
	<path class="st7" d="M75,9.2L8.8,34.3c3.2,96.1,32.6,117,66.2,149.5"/>
	<polyline class="st1" points="75,81.3 54,60.3 46.7,67.6 67.7,88.6 46.7,109.6 54,116.9 75,95.9 	"/>
</g>
</svg>
